<svg class="admin-heading" data-name="Layer 1" xmlns="http://www.w3.org/2000/svg" xmlns:xlink="http://www.w3.org/1999/xlink" viewBox="0 0 408.93262 18.48193">
  <defs>
    <style>
      .cls-1 {
        fill: #666;
      }

      .cls-2 {
        fill: #ff5000;
      }

      .cls-3 {
        fill: #ff5000;
      }
    </style>
    <linearGradient id="linear-gradient" x1="405.08789" y1="9.2334" x2="310.08691" y2="9.2334" gradientUnits="userSpaceOnUse">
      <stop offset="0.23298" stop-color="#a5181e"/>
      <stop offset="1" stop-color="#e74c23"/>
    </linearGradient>
    <linearGradient id="linear-gradient-4" x1="362.8367" y1="5.4212" x2="288.09047" y2="5.4212" xlink:href="#linear-gradient"/>
  </defs>
  <title>Morillian mBWS logo</title>
  <path class="cls-1" d="M0,18.48193,9.58057,4.0957,7.04.26953H27.08887a3.79054,3.79054,0,0,1,3.459,1.5918A6.22433,6.22433,0,0,1,35.13916.26953H48.148c4.92822,0,5.17285,2.26514,4.13232,3.82617L42.73,18.48193H34.71045L43.15869,5.7793c.7041-1.07129.12256-1.6836-1.25488-1.6836h-6.918L25.37451,18.48193H17.355L25.834,5.74854c.70411-1.04053,0-1.65284-1.25488-1.65284h-6.979L8.01953,18.48193Z"/>
  <path class="cls-1" d="M54.2959,18.48193c-2.35694,0-4.92822-1.25488-2.90772-4.28515L58.12207,4.0957C60.6626.26953,63.26416.26953,64.856.26953H79.4873c4.9585,0,5.38721,1.98975,4.1626,3.82617L76.916,14.19678c-2.84668,4.28515-5.69336,4.28515-7.56055,4.28515Zm11.69287-4.28515c2.08105,0,3.21387-.42871,4.10156-1.77539l4.438-6.64209c.7041-1.07129.03076-1.6836-1.28516-1.6836H68.62109c-1.80615,0-2.75488.39795-3.61181,1.6836L60.5708,12.45215c-.7041,1.07129-.30615,1.74463,1.19385,1.74463Z"/>
  <path class="cls-1" d="M80.0957,18.48193,87.50342,7.37061h12.978a3.05555,3.05555,0,0,0,2.7246-1.00977l.67334-1.041c.55079-.82617-.18359-1.22412-1.53076-1.22412H89.5542L87.01367.26953H108.5625c4.9585,0,5.38721,1.98975,4.1626,3.82617l-2.23438,3.39746c-1.13232,1.71436-4.04052,2.08155-6.15234,2.17334,2.08154.30616,2.87744,1.31641,2.54053,2.63233l-1.53028,6.1831H97.3291l1.89746-5.66259c.30615-.85694-.09179-1.65284-1.40771-1.65284H92.98242l-4.8667,7.31543Z"/>
  <path class="cls-1" d="M109.17188,18.48193,121.32373.26953h8.02l-12.15186,18.2124Z"/>
  <path class="cls-1" d="M123.37305,18.48193,135.52441.26953h8.02l-9.30517,13.92725h12.05957l-2.877,4.28515Z"/>
  <path class="cls-1" d="M147.36816,18.48193,159.52.26953h8.02l-9.30518,13.92725h12.05957l-2.87695,4.28515Z"/>
  <path class="cls-1" d="M171.36328,18.48193,183.51514.26953h8.02L179.3833,18.48193Z"/>
  <path class="cls-1" d="M201.11426,18.48193l5.08105-7.62158h-5.26465c-1.92871,0-2.66308.30615-3.6123,1.53027L192.666,18.48193H184.1875l7.13184-8.60107c1.37695-1.65283,3.24414-2.84668,7.2539-2.84668h10.16211l.82715-1.25488c.918-1.40821-.0918-1.6836-1.19434-1.6836H197.13477L195.3291.26953h19.22266c4.92773,0,5.0498,2.54053,3.79492,4.40772l-9.21289,13.80468Z"/>
  <path class="cls-1" d="M214.88477,18.48193,224.46484,4.0957l-2.54-3.82617h23.875c4.92774,0,5.14258,2.26514,4.10157,3.82617l-9.58106,14.38623h-8.08008L240.749,5.7793c.76563-1.13282.06153-1.6836-1.16308-1.6836h-7.10156L222.9043,18.48193Z"/>
  <path class="cls-1" d="M254.80184,6.14225c-.76067,0-1.60323-.41321-.94233-1.38841l2.18166-3.27192A2.31186,2.31186,0,0,1,258.22226.2423h5.173c1.45444,0,1.5865.64446,1.18973,1.23962l-2.18166,3.27192a2.57612,2.57612,0,0,1-2.44579,1.38841Zm5.11986-.77042a1.70333,1.70333,0,0,0,1.41228-.61745l2.54123-3.74195h-5.577a1.5045,1.5045,0,0,0-1.25337.58265l-2.54124,3.77675Z"/>
  <path class="cls-1" d="M257.28374,4.19706l.99876-1.36792h1.54209a.38344.38344,0,0,0,.32734-.11628l.06311-.08733c.06361-.08734-.02025-.14548-.1802-.14548h-1.51365L258.243,2.0289h2.56066c.5819,0,.62638.23281.46761.45115l-.28583.40723a1.04412,1.04412,0,0,1-.758.262c.24554.02919.33979.15994.28741.30567l-.219.7421h-.96019l.30462-.71316c.035-.1018-.00256-.20361-.1625-.20361h-.56768l-.66562.91677Z"/>
  <path class="cls-2" d="M299.332,18.4668l9.71485-14.58692L306.4707,0h23.68067c5.02832,0,5.46289,2.01758,4.2207,3.87988L331.95117,7.48c-.68262,1.02393-3.07226,2.01709-4.53125,2.11035,1.335.2793,2.88672,1.48975,2.01758,2.85547l-1.08594,1.67578c-2.82422,4.37647-6.14551,4.34522-8.03906,4.34522Zm18.90137-4.34522a3.05072,3.05072,0,0,0,2.63769-1.02392l.65235-.99317c.46582-.71387.06152-1.36572-1.335-1.36572h-7.57227l-2.26562,3.38281Zm-3.01074-7.2622h7.48046c1.30274,0,2.23438-.2793,2.69922-.96241l.4043-.58935c.58984-.83838-.09375-1.42774-1.52148-1.42774H317.209Z"/>
  <path class="cls-2" d="M356.59863,14.12158h3.29a6.66036,6.66036,0,0,0,4.46973-1.86181L375.46875,0h8.56641L372.24121,13.03564c-3.10351,3.44483-6.85937,5.43116-11.2666,5.43116h-7.10742a2.81261,2.81261,0,0,1-3.041-1.98633,6.59024,6.59024,0,0,1-4.90429,1.98633H330.77637l9.99414-14.58692L338.19434,0h13.0039L341.5459,14.12158h4.31445a5.18131,5.18131,0,0,0,4.18945-1.7998L359.20605,0h7.542Z"/>
  <path class="cls-2" d="M378.54785,14.12158h14.05957c2.23438,0,2.04883-1.24121,1.14844-1.831l-4.376-2.85547c-3.66211-2.38965-5.67968-3.8794-4.77929-6.33106C385.53125.52783,388.35547,0,391.9873,0h16.94532l-2.57617,3.87988H395.24609c-1.335,0-1.6455.96192-.83789,1.48975l4.22071,2.793c2.917,1.83105,4.2832,3.56933,3.63086,5.959-.71387,2.60694-2.9795,4.34522-9.31055,4.34522H375.66211Z"/>
  <path class="cls-3" d="M272.71462,10.73877l5.59458-8.40085L276.82565.10363h11.70753a2.21348,2.21348,0,0,1,2.01987.92953,3.63471,3.63471,0,0,1,2.6811-.92953h7.59649c2.87784,0,3.02069,1.32273,2.41307,2.23429l-5.5769,8.40085h-4.683l4.93336-7.41771c.41116-.62558.07157-.98314-.73279-.98314h-4.03975l-5.61254,8.40085h-4.683l4.95132-7.43568c.41116-.60761,0-.96517-.73279-.96517h-4.07539l-5.59458,8.40085Z"/>
</svg>
